<svg viewBox="0 0 2300 1300" xmlns="http://www.w3.org/2000/svg">
<rect x="0" y="0" width="2300" height="1300" fill="#000000"/>
<rect x="40" y="590" width="190" height="46" rx="4" fill="#FFFFFF"/>
<text x="135.0" y="618.0" text-anchor="middle" font-family="Arial, Helvetica, sans-serif" font-size="15" font-weight="700" fill="#000000">Filtro edad</text>
<rect x="300" y="380" width="100" height="44" rx="4" fill="#FFFFFF"/>
<text x="350.0" y="407.0" text-anchor="middle" font-family="Arial, Helvetica, sans-serif" font-size="15" font-weight="700" fill="#000000">Sí</text>
<rect x="300" y="940" width="100" height="44" rx="4" fill="#FFFFFF"/>
<text x="350.0" y="967.0" text-anchor="middle" font-family="Arial, Helvetica, sans-serif" font-size="15" font-weight="700" fill="#000000">No</text>
<line x1="230" y1="613.0" x2="240" y2="613.0" stroke="#FFAC00" stroke-width="1.4"/>
<line x1="240" y1="402.0" x2="240" y2="962.0" stroke="#FFAC00" stroke-width="1.4"/>
<line x1="240" y1="402.0" x2="300" y2="402.0" stroke="#FFAC00" stroke-width="1.4"/>
<line x1="240" y1="962.0" x2="300" y2="962.0" stroke="#FFAC00" stroke-width="1.4"/>
<rect x="470" y="60" width="170" height="46" rx="4" fill="#FFFFFF"/>
<text x="555.0" y="88.0" text-anchor="middle" font-family="Arial, Helvetica, sans-serif" font-size="15" font-weight="700" fill="#000000">Header</text>
<rect x="470" y="620" width="170" height="46" rx="4" fill="#FFFFFF"/>
<text x="555.0" y="648.0" text-anchor="middle" font-family="Arial, Helvetica, sans-serif" font-size="15" font-weight="700" fill="#000000">Body</text>
<rect x="470" y="880" width="170" height="46" rx="4" fill="#FFFFFF"/>
<text x="555.0" y="908.0" text-anchor="middle" font-family="Arial, Helvetica, sans-serif" font-size="15" font-weight="700" fill="#000000">Footer*</text>
<line x1="400" y1="402.0" x2="400" y2="402.0" stroke="#FFAC00" stroke-width="1.4"/>
<line x1="400" y1="83.0" x2="400" y2="903.0" stroke="#FFAC00" stroke-width="1.4"/>
<line x1="400" y1="83.0" x2="470" y2="83.0" stroke="#FFAC00" stroke-width="1.4"/>
<line x1="400" y1="643.0" x2="470" y2="643.0" stroke="#FFAC00" stroke-width="1.4"/>
<line x1="400" y1="903.0" x2="470" y2="903.0" stroke="#FFAC00" stroke-width="1.4"/>
<rect x="470" y="940" width="200" height="44" rx="4" fill="#FFAC00"/>
<text x="570.0" y="967.0" text-anchor="middle" font-family="Arial, Helvetica, sans-serif" font-size="14.5" font-weight="700" fill="#000000">Merchandising</text>
<line x1="400" y1="962.0" x2="435.0" y2="962.0" stroke="#FFAC00" stroke-width="1.4"/>
<line x1="435.0" y1="962.0" x2="435.0" y2="962.0" stroke="#FFAC00" stroke-width="1.4"/>
<line x1="435.0" y1="962.0" x2="470" y2="962.0" stroke="#FFAC00" stroke-width="1.4"/>
<rect x="780" y="68" width="74.4" height="34" rx="17.0" fill="#000000" stroke="#FFAC00" stroke-width="1.5"/>
<text x="817.2" y="90.0" text-anchor="middle" font-family="Arial, Helvetica, sans-serif" font-size="12" font-weight="600" fill="#FFFFFF">Perfil</text>
<rect x="870.4" y="68" width="82.80000000000001" height="34" rx="17.0" fill="#000000" stroke="#FFAC00" stroke-width="1.5"/>
<text x="911.8" y="90.0" text-anchor="middle" font-family="Arial, Helvetica, sans-serif" font-size="12" font-weight="600" fill="#FFFFFF">Idiomas</text>
<rect x="969.2" y="68" width="91.2" height="34" rx="17.0" fill="#000000" stroke="#FFAC00" stroke-width="1.5"/>
<text x="1014.8000000000001" y="90.0" text-anchor="middle" font-family="Arial, Helvetica, sans-serif" font-size="12" font-weight="600" fill="#FFFFFF">Buscador</text>
<rect x="1076.4" y="68" width="82.80000000000001" height="34" rx="17.0" fill="#000000" stroke="#FFAC00" stroke-width="1.5"/>
<text x="1117.8000000000002" y="90.0" text-anchor="middle" font-family="Arial, Helvetica, sans-serif" font-size="12" font-weight="600" fill="#FFFFFF">Spotify</text>
<rect x="1175.2" y="68" width="82.80000000000001" height="34" rx="17.0" fill="#000000" stroke="#FFAC00" stroke-width="1.5"/>
<text x="1216.6000000000001" y="90.0" text-anchor="middle" font-family="Arial, Helvetica, sans-serif" font-size="12" font-weight="600" fill="#FFFFFF">Carrito</text>
<rect x="760" y="52" width="502.0" height="66" rx="8" fill="none" stroke="#FFAC00" stroke-width="1.3" stroke-dasharray="4 4"/>
<line x1="640" y1="83.0" x2="760" y2="83.0" stroke="#FFAC00" stroke-width="1.4" stroke-dasharray="3 4"/>
<rect x="700" y="240" width="110" height="46" rx="4" fill="#FFAC00"/>
<text x="755.0" y="268.0" text-anchor="middle" font-family="Arial, Helvetica, sans-serif" font-size="15" font-weight="700" fill="#000000">Cervezas</text>
<rect x="1010" y="240" width="110" height="46" rx="4" fill="#FFAC00"/>
<text x="1065.0" y="268.0" text-anchor="middle" font-family="Arial, Helvetica, sans-serif" font-size="15" font-weight="700" fill="#000000">Eventos</text>
<rect x="1300" y="240" width="110" height="46" rx="4" fill="#FFAC00"/>
<text x="1355.0" y="268.0" text-anchor="middle" font-family="Arial, Helvetica, sans-serif" font-size="15" font-weight="700" fill="#000000">Bares</text>
<rect x="1560" y="240" width="110" height="46" rx="4" fill="#FFAC00"/>
<text x="1615.0" y="268.0" text-anchor="middle" font-family="Arial, Helvetica, sans-serif" font-size="15" font-weight="700" fill="#000000">Socios</text>
<rect x="1820" y="240" width="160" height="46" rx="4" fill="#FFAC00"/>
<text x="1900.0" y="268.0" text-anchor="middle" font-family="Arial, Helvetica, sans-serif" font-size="15" font-weight="700" fill="#000000">Merchandising</text>
<line x1="555.0" y1="106" x2="555.0" y2="200" stroke="#FFAC00" stroke-width="1.4"/>
<line x1="555.0" y1="200" x2="1900.0" y2="200" stroke="#FFAC00" stroke-width="1.4"/>
<line x1="755.0" y1="200" x2="755.0" y2="240" stroke="#FFAC00" stroke-width="1.4"/>
<line x1="1065.0" y1="200" x2="1065.0" y2="240" stroke="#FFAC00" stroke-width="1.4"/>
<line x1="1355.0" y1="200" x2="1355.0" y2="240" stroke="#FFAC00" stroke-width="1.4"/>
<line x1="1615.0" y1="200" x2="1615.0" y2="240" stroke="#FFAC00" stroke-width="1.4"/>
<line x1="1900.0" y1="200" x2="1900.0" y2="240" stroke="#FFAC00" stroke-width="1.4"/>
<rect x="700" y="340" width="166" height="40" rx="3" fill="#000000" stroke="#FFAC00" stroke-width="1.5"/>
<text x="783.0" y="365.0" text-anchor="middle" font-family="Arial, Helvetica, sans-serif" font-size="13.5" font-weight="600" fill="#FFFFFF">Nuestras cervezas</text>
<rect x="700" y="400" width="126" height="40" rx="3" fill="#000000" stroke="#FFAC00" stroke-width="1.5"/>
<text x="763.0" y="425.0" text-anchor="middle" font-family="Arial, Helvetica, sans-serif" font-size="13.5" font-weight="600" fill="#FFFFFF">Recomendador</text>
<rect x="700" y="460" width="70" height="40" rx="3" fill="#000000" stroke="#FFAC00" stroke-width="1.5"/>
<text x="735.0" y="485.0" text-anchor="middle" font-family="Arial, Helvetica, sans-serif" font-size="13.5" font-weight="600" fill="#FFFFFF">Packs</text>
<line x1="755.0" y1="286" x2="755.0" y2="300" stroke="#FFAC00" stroke-width="1.4"/>
<line x1="735.0" y1="300" x2="783.0" y2="300" stroke="#FFAC00" stroke-width="1.4"/>
<line x1="783.0" y1="300" x2="783.0" y2="340" stroke="#FFAC00" stroke-width="1.4"/>
<line x1="763.0" y1="300" x2="763.0" y2="400" stroke="#FFAC00" stroke-width="1.4"/>
<line x1="735.0" y1="300" x2="735.0" y2="460" stroke="#FFAC00" stroke-width="1.4"/>
<rect x="700" y="560" width="140" height="34" rx="17.0" fill="#000000" stroke="#FFAC00" stroke-width="1.5"/>
<text x="770.0" y="582.0" text-anchor="middle" font-family="Arial, Helvetica, sans-serif" font-size="12" font-weight="600" fill="#FFFFFF">Filtro*</text>
<rect x="700" y="604" width="140" height="34" rx="17.0" fill="#000000" stroke="#FFAC00" stroke-width="1.5"/>
<text x="770.0" y="626.0" text-anchor="middle" font-family="Arial, Helvetica, sans-serif" font-size="12" font-weight="600" fill="#FFFFFF">Ordenar por*</text>
<rect x="690" y="548" width="160" height="100" rx="8" fill="none" stroke="#FFAC00" stroke-width="1.3" stroke-dasharray="4 4"/>
<line x1="735.0" y1="500" x2="735.0" y2="530.0" stroke="#FFAC00" stroke-width="1.4" stroke-dasharray="3 4"/>
<line x1="735.0" y1="530.0" x2="770.0" y2="530.0" stroke="#FFAC00" stroke-width="1.4" stroke-dasharray="3 4"/>
<line x1="770.0" y1="530.0" x2="770.0" y2="560" stroke="#FFAC00" stroke-width="1.4" stroke-dasharray="3 4"/>
<rect x="706" y="706" width="190" height="42" rx="3" fill="#000000" stroke="#FFAC00" stroke-width="1.2"/>
<rect x="703" y="703" width="190" height="42" rx="3" fill="#000000" stroke="#FFAC00" stroke-width="1.2"/>
<rect x="700" y="700" width="190" height="42" rx="3" fill="#000000" stroke="#FFAC00" stroke-width="1.5"/>
<text x="795.0" y="726.0" text-anchor="middle" font-family="Arial, Helvetica, sans-serif" font-size="13" font-weight="600" fill="#FFFFFF">Ficha técnica cerveza*</text>
<line x1="770" y1="648" x2="770" y2="700" stroke="#FFAC00" stroke-width="1.4" stroke-dasharray="3 4"/>
<rect x="1010" y="340" width="150" height="40" rx="3" fill="#000000" stroke="#FFAC00" stroke-width="1.5"/>
<text x="1085.0" y="365.0" text-anchor="middle" font-family="Arial, Helvetica, sans-serif" font-size="13.5" font-weight="600" fill="#FFFFFF">Próximos eventos</text>
<rect x="1010" y="400" width="150" height="40" rx="3" fill="#000000" stroke="#FFAC00" stroke-width="1.5"/>
<text x="1085.0" y="425.0" text-anchor="middle" font-family="Arial, Helvetica, sans-serif" font-size="13.5" font-weight="600" fill="#FFFFFF">Eventos pasados</text>
<rect x="1010" y="460" width="150" height="40" rx="3" fill="#000000" stroke="#FFAC00" stroke-width="1.5"/>
<text x="1085.0" y="485.0" text-anchor="middle" font-family="Arial, Helvetica, sans-serif" font-size="13.5" font-weight="600" fill="#FFFFFF">Vista calendario</text>
<line x1="1065.0" y1="286" x2="1065.0" y2="300" stroke="#FFAC00" stroke-width="1.4"/>
<line x1="1065.0" y1="300" x2="1085.0" y2="300" stroke="#FFAC00" stroke-width="1.4"/>
<line x1="1085.0" y1="300" x2="1085.0" y2="340" stroke="#FFAC00" stroke-width="1.4"/>
<line x1="1085.0" y1="300" x2="1085.0" y2="400" stroke="#FFAC00" stroke-width="1.4"/>
<line x1="1085.0" y1="300" x2="1085.0" y2="460" stroke="#FFAC00" stroke-width="1.4"/>
<rect x="1016" y="526" width="150" height="42" rx="3" fill="#000000" stroke="#FFAC00" stroke-width="1.2"/>
<rect x="1013" y="523" width="150" height="42" rx="3" fill="#000000" stroke="#FFAC00" stroke-width="1.2"/>
<rect x="1010" y="520" width="150" height="42" rx="3" fill="#000000" stroke="#FFAC00" stroke-width="1.5"/>
<text x="1085.0" y="546.0" text-anchor="middle" font-family="Arial, Helvetica, sans-serif" font-size="13" font-weight="600" fill="#FFFFFF">Galería de fotos</text>
<line x1="1085.0" y1="380" x2="1085.0" y2="450.0" stroke="#FFAC00" stroke-width="1.4"/>
<line x1="1085.0" y1="450.0" x2="1085.0" y2="450.0" stroke="#FFAC00" stroke-width="1.4"/>
<line x1="1085.0" y1="450.0" x2="1085.0" y2="520" stroke="#FFAC00" stroke-width="1.4"/>
<rect x="1010" y="640" width="150" height="40" rx="3" fill="#000000" stroke="#FFAC00" stroke-width="1.5"/>
<text x="1085.0" y="665.0" text-anchor="middle" font-family="Arial, Helvetica, sans-serif" font-size="13.5" font-weight="600" fill="#FFFFFF">Formulario</text>
<line x1="1085.0" y1="500" x2="1085.0" y2="570.0" stroke="#FFAC00" stroke-width="1.4"/>
<line x1="1085.0" y1="570.0" x2="1085.0" y2="570.0" stroke="#FFAC00" stroke-width="1.4"/>
<line x1="1085.0" y1="570.0" x2="1085.0" y2="640" stroke="#FFAC00" stroke-width="1.4"/>
<rect x="1300" y="340" width="130" height="40" rx="3" fill="#000000" stroke="#FFAC00" stroke-width="1.5"/>
<text x="1365.0" y="365.0" text-anchor="middle" font-family="Arial, Helvetica, sans-serif" font-size="13.5" font-weight="600" fill="#FFFFFF">Universitat</text>
<rect x="1300" y="400" width="130" height="40" rx="3" fill="#000000" stroke="#FFAC00" stroke-width="1.5"/>
<text x="1365.0" y="425.0" text-anchor="middle" font-family="Arial, Helvetica, sans-serif" font-size="13.5" font-weight="600" fill="#FFFFFF">Poble Nou</text>
<line x1="1355.0" y1="286" x2="1355.0" y2="300" stroke="#FFAC00" stroke-width="1.4"/>
<line x1="1355.0" y1="300" x2="1365.0" y2="300" stroke="#FFAC00" stroke-width="1.4"/>
<line x1="1365.0" y1="300" x2="1365.0" y2="340" stroke="#FFAC00" stroke-width="1.4"/>
<line x1="1365.0" y1="300" x2="1365.0" y2="400" stroke="#FFAC00" stroke-width="1.4"/>
<rect x="1300" y="460" width="260" height="96" rx="48.0" fill="#000000" stroke="#FFAC00" stroke-width="1.5"/>
<text x="1330" y="484" font-family="Arial, Helvetica, sans-serif" font-size="12.5" font-weight="500" fill="#FFFFFF">• Reserva de mesa</text>
<text x="1330" y="503" font-family="Arial, Helvetica, sans-serif" font-size="12.5" font-weight="500" fill="#FFFFFF">• Ubicación</text>
<text x="1330" y="522" font-family="Arial, Helvetica, sans-serif" font-size="12.5" font-weight="500" fill="#FFFFFF">• Información contacto</text>
<line x1="1365.0" y1="440" x2="1365.0" y2="450.0" stroke="#FFAC00" stroke-width="1.4"/>
<line x1="1365.0" y1="450.0" x2="1430.0" y2="450.0" stroke="#FFAC00" stroke-width="1.4"/>
<line x1="1430.0" y1="450.0" x2="1430.0" y2="460" stroke="#FFAC00" stroke-width="1.4"/>
<rect x="1560" y="340" width="130" height="40" rx="3" fill="#000000" stroke="#FFAC00" stroke-width="1.5"/>
<text x="1625.0" y="365.0" text-anchor="middle" font-family="Arial, Helvetica, sans-serif" font-size="13.5" font-weight="600" fill="#FFFFFF">Inciar sesión</text>
<rect x="1560" y="400" width="130" height="40" rx="3" fill="#000000" stroke="#FFAC00" stroke-width="1.5"/>
<text x="1625.0" y="425.0" text-anchor="middle" font-family="Arial, Helvetica, sans-serif" font-size="13.5" font-weight="600" fill="#FFFFFF">Registrarse</text>
<line x1="1615.0" y1="286" x2="1615.0" y2="300" stroke="#FFAC00" stroke-width="1.4"/>
<line x1="1615.0" y1="300" x2="1625.0" y2="300" stroke="#FFAC00" stroke-width="1.4"/>
<line x1="1625.0" y1="300" x2="1625.0" y2="340" stroke="#FFAC00" stroke-width="1.4"/>
<line x1="1625.0" y1="300" x2="1625.0" y2="400" stroke="#FFAC00" stroke-width="1.4"/>
<rect x="1780" y="400" width="110" height="40" rx="3" fill="#000000" stroke="#FFAC00" stroke-width="1.5"/>
<text x="1835.0" y="425.0" text-anchor="middle" font-family="Arial, Helvetica, sans-serif" font-size="13.5" font-weight="600" fill="#FFFFFF">Perfil</text>
<line x1="1690" y1="420.0" x2="1735.0" y2="420.0" stroke="#FFAC00" stroke-width="1.4"/>
<line x1="1735.0" y1="420.0" x2="1735.0" y2="420.0" stroke="#FFAC00" stroke-width="1.4"/>
<line x1="1735.0" y1="420.0" x2="1780" y2="420.0" stroke="#FFAC00" stroke-width="1.4"/>
<rect x="1980" y="480" width="104.2" height="38" rx="3" fill="#000000" stroke="#FFAC00" stroke-width="1.5"/>
<text x="2032.1" y="504.0" text-anchor="middle" font-family="Arial, Helvetica, sans-serif" font-size="13" font-weight="600" fill="#FFFFFF">Favoritos</text>
<rect x="1980" y="536" width="174.4" height="38" rx="3" fill="#000000" stroke="#FFAC00" stroke-width="1.5"/>
<text x="2067.2" y="560.0" text-anchor="middle" font-family="Arial, Helvetica, sans-serif" font-size="13" font-weight="600" fill="#FFFFFF">Historial búsqueda</text>
<rect x="1980" y="592" width="119.8" height="38" rx="3" fill="#000000" stroke="#FFAC00" stroke-width="1.5"/>
<text x="2039.9" y="616.0" text-anchor="middle" font-family="Arial, Helvetica, sans-serif" font-size="13" font-weight="600" fill="#FFFFFF">Suscripción</text>
<rect x="1980" y="648" width="88.6" height="38" rx="3" fill="#000000" stroke="#FFAC00" stroke-width="1.5"/>
<text x="2024.3" y="672.0" text-anchor="middle" font-family="Arial, Helvetica, sans-serif" font-size="13" font-weight="600" fill="#FFFFFF">Compras</text>
<line x1="1890" y1="420.0" x2="1930" y2="420.0" stroke="#FFAC00" stroke-width="1.4"/>
<line x1="1930" y1="420.0" x2="1930" y2="667.0" stroke="#FFAC00" stroke-width="1.4"/>
<line x1="1930" y1="499.0" x2="1980" y2="499.0" stroke="#FFAC00" stroke-width="1.4"/>
<line x1="1930" y1="555.0" x2="1980" y2="555.0" stroke="#FFAC00" stroke-width="1.4"/>
<line x1="1930" y1="611.0" x2="1980" y2="611.0" stroke="#FFAC00" stroke-width="1.4"/>
<line x1="1930" y1="667.0" x2="1980" y2="667.0" stroke="#FFAC00" stroke-width="1.4"/>
<rect x="1826" y="346" width="160" height="42" rx="3" fill="#000000" stroke="#FFAC00" stroke-width="1.2"/>
<rect x="1823" y="343" width="160" height="42" rx="3" fill="#000000" stroke="#FFAC00" stroke-width="1.2"/>
<rect x="1820" y="340" width="160" height="42" rx="3" fill="#000000" stroke="#FFAC00" stroke-width="1.5"/>
<text x="1900.0" y="366.0" text-anchor="middle" font-family="Arial, Helvetica, sans-serif" font-size="13.5" font-weight="600" fill="#FFFFFF">Ficha producto</text>
<line x1="1900.0" y1="286" x2="1900.0" y2="313.0" stroke="#FFAC00" stroke-width="1.4"/>
<line x1="1900.0" y1="313.0" x2="1900.0" y2="313.0" stroke="#FFAC00" stroke-width="1.4"/>
<line x1="1900.0" y1="313.0" x2="1900.0" y2="340" stroke="#FFAC00" stroke-width="1.4"/>
<rect x="700" y="800" width="150" height="44" rx="4" fill="#FFAC00"/>
<text x="775.0" y="827.0" text-anchor="middle" font-family="Arial, Helvetica, sans-serif" font-size="14" font-weight="700" fill="#000000">Novedades</text>
<rect x="890" y="800" width="150" height="44" rx="4" fill="#FFAC00"/>
<text x="965.0" y="827.0" text-anchor="middle" font-family="Arial, Helvetica, sans-serif" font-size="14" font-weight="700" fill="#000000">Eventos</text>
<rect x="1080" y="800" width="150" height="44" rx="4" fill="#FFAC00"/>
<text x="1155.0" y="827.0" text-anchor="middle" font-family="Arial, Helvetica, sans-serif" font-size="14" font-weight="700" fill="#000000">About us</text>
<line x1="555.0" y1="666" x2="555.0" y2="760" stroke="#FFAC00" stroke-width="1.4" stroke-dasharray="3 4"/>
<line x1="555.0" y1="760" x2="1155.0" y2="760" stroke="#FFAC00" stroke-width="1.4" stroke-dasharray="3 4"/>
<line x1="775.0" y1="760" x2="775.0" y2="800" stroke="#FFAC00" stroke-width="1.4" stroke-dasharray="3 4"/>
<line x1="965.0" y1="760" x2="965.0" y2="800" stroke="#FFAC00" stroke-width="1.4" stroke-dasharray="3 4"/>
<line x1="1155.0" y1="760" x2="1155.0" y2="800" stroke="#FFAC00" stroke-width="1.4" stroke-dasharray="3 4"/>
<rect x="1720" y="880" width="540" height="380" rx="8" fill="none" stroke="#FFAC00" stroke-width="1.3" stroke-dasharray="4 4"/>
<rect x="1750" y="896" width="110" height="32" rx="4" fill="#FFAC00"/>
<text x="1805.0" y="917.0" text-anchor="middle" font-family="Arial, Helvetica, sans-serif" font-size="15" font-weight="700" fill="#000000"></text>
<text x="1880" y="920" font-family="Arial, Helvetica, sans-serif" font-size="14" fill="#FFFFFF">Página principal</text>
<rect x="2036" y="902" width="90" height="32" rx="3" fill="#000000" stroke="#FFAC00" stroke-width="1.2"/>
<rect x="2033" y="899" width="90" height="32" rx="3" fill="#000000" stroke="#FFAC00" stroke-width="1.2"/>
<rect x="2030" y="896" width="90" height="32" rx="3" fill="#000000" stroke="#FFAC00" stroke-width="1.5"/>
<text x="2075.0" y="917.0" text-anchor="middle" font-family="Arial, Helvetica, sans-serif" font-size="15" font-weight="600" fill="#FFFFFF"></text>
<text x="2140" y="920" font-family="Arial, Helvetica, sans-serif" font-size="14" fill="#FFFFFF">Grupo de página</text>
<rect x="1750" y="966" width="110" height="32" rx="3" fill="#000000" stroke="#FFAC00" stroke-width="1.5"/>
<text x="1805.0" y="987.0" text-anchor="middle" font-family="Arial, Helvetica, sans-serif" font-size="15" font-weight="600" fill="#FFFFFF"></text>
<text x="1880" y="990" font-family="Arial, Helvetica, sans-serif" font-size="14" fill="#FFFFFF">Página secundaria</text>
<rect x="2030" y="966" width="90" height="32" rx="16.0" fill="#000000" stroke="#FFAC00" stroke-width="1.5"/>
<text x="2075.0" y="987.0" text-anchor="middle" font-family="Arial, Helvetica, sans-serif" font-size="14" font-weight="600" fill="#FFFFFF"></text>
<text x="2140" y="990" font-family="Arial, Helvetica, sans-serif" font-size="14" fill="#FFFFFF">Componente</text>
<text x="1750" y="1030" font-family="Arial, Helvetica, sans-serif" font-size="12.5" font-weight="700" fill="#FFAC00">*Footer</text>
<text x="1750" y="1050" font-family="Arial, Helvetica, sans-serif" font-size="11" fill="#B8B8B8">• Información de contacto</text>
<text x="1750" y="1067" font-family="Arial, Helvetica, sans-serif" font-size="11" fill="#B8B8B8">• Newsletter</text>
<text x="1750" y="1084" font-family="Arial, Helvetica, sans-serif" font-size="11" fill="#B8B8B8">• RRSS</text>
<text x="1750" y="1101" font-family="Arial, Helvetica, sans-serif" font-size="11" fill="#B8B8B8">• Términos y condiciones</text>
<text x="1750" y="1118" font-family="Arial, Helvetica, sans-serif" font-size="11" fill="#B8B8B8">• Privacy Policy</text>
<text x="1750" y="1135" font-family="Arial, Helvetica, sans-serif" font-size="11" fill="#B8B8B8">• Preguntas frecuentes</text>
<text x="1750" y="1152" font-family="Arial, Helvetica, sans-serif" font-size="11" fill="#B8B8B8">• Cookies</text>
<text x="1868" y="1030" font-family="Arial, Helvetica, sans-serif" font-size="12.5" font-weight="700" fill="#FFAC00">*Ordenar por</text>
<text x="1868" y="1050" font-family="Arial, Helvetica, sans-serif" font-size="11" fill="#B8B8B8">• Precio de mayor a menor</text>
<text x="1868" y="1067" font-family="Arial, Helvetica, sans-serif" font-size="11" fill="#B8B8B8">• Precios de menor a mayor</text>
<text x="1868" y="1084" font-family="Arial, Helvetica, sans-serif" font-size="11" fill="#B8B8B8">• Alfabéticamente</text>
<text x="1868" y="1101" font-family="Arial, Helvetica, sans-serif" font-size="11" fill="#B8B8B8">• Novedades</text>
<text x="1868" y="1118" font-family="Arial, Helvetica, sans-serif" font-size="11" fill="#B8B8B8">• Más vendidos</text>
<text x="1868" y="1135" font-family="Arial, Helvetica, sans-serif" font-size="11" fill="#B8B8B8">• Por defecto</text>
<text x="1996" y="1030" font-family="Arial, Helvetica, sans-serif" font-size="12.5" font-weight="700" fill="#FFAC00">*Ficha cerveza</text>
<text x="1996" y="1050" font-family="Arial, Helvetica, sans-serif" font-size="11" fill="#B8B8B8">• Información:</text>
<text x="1996" y="1067" font-family="Arial, Helvetica, sans-serif" font-size="11" fill="#B8B8B8">•   Peso, Formato, IBU</text>
<text x="1996" y="1084" font-family="Arial, Helvetica, sans-serif" font-size="11" fill="#B8B8B8">•   Lúpulos, Alérgenos</text>
<text x="1996" y="1101" font-family="Arial, Helvetica, sans-serif" font-size="11" fill="#B8B8B8">•   Ingredientes</text>
<text x="1996" y="1118" font-family="Arial, Helvetica, sans-serif" font-size="11" fill="#B8B8B8">• Opiniones</text>
<text x="1996" y="1135" font-family="Arial, Helvetica, sans-serif" font-size="11" fill="#B8B8B8">• Productos relacionados</text>
<text x="2128" y="1030" font-family="Arial, Helvetica, sans-serif" font-size="12.5" font-weight="700" fill="#FFAC00">*Filtro</text>
<text x="2128" y="1050" font-family="Arial, Helvetica, sans-serif" font-size="11" fill="#B8B8B8">• Color</text>
<text x="2128" y="1067" font-family="Arial, Helvetica, sans-serif" font-size="11" fill="#B8B8B8">• Fermentación</text>
<text x="2128" y="1084" font-family="Arial, Helvetica, sans-serif" font-size="11" fill="#B8B8B8">• Estilos</text>
<text x="2128" y="1101" font-family="Arial, Helvetica, sans-serif" font-size="11" fill="#B8B8B8">• Amargos (IBU)</text>
<text x="2128" y="1118" font-family="Arial, Helvetica, sans-serif" font-size="11" fill="#B8B8B8">• Alcohol (ABV)</text>
</svg>